HIERARCHY
ROOT Hips
{
	OFFSET	0.00	0.00	0.00
	CHANNELS 6 Xposition Yposition Zposition Zrotation Xrotation Yrotation
	JOINT LeftUpLeg
	{
		OFFSET	 0.126116	-0.014019	-0.065224
		CHANNELS 3 Zrotation Xrotation Yrotation
		JOINT LeftLeg
		{
			OFFSET	 0.000000	 0.000000	 0.569914
			CHANNELS 3 Zrotation Xrotation Yrotation
			JOINT LeftFoot
			{
				OFFSET	 0.000000	 0.000000	 0.544423
				CHANNELS 3 Zrotation Xrotation Yrotation
				JOINT LeftToeBase
				{
					OFFSET	 0.000000	 0.000000	 0.207117
					CHANNELS 3 Zrotation Xrotation Yrotation
					End Site
					{
						OFFSET	 0.000000	 0.000000	 0.207117
					}
				}
			}
		}
	}
	JOINT RightUpLeg
	{
		OFFSET	-0.124023	-0.008373	-0.065224
		CHANNELS 3 Zrotation Xrotation Yrotation
		JOINT RightLeg
		{
			OFFSET	 0.000000	 0.000000	 0.570047
			CHANNELS 3 Zrotation Xrotation Yrotation
			JOINT RightFoot
			{
				OFFSET	 0.000000	 0.000000	 0.544354
				CHANNELS 3 Zrotation Xrotation Yrotation
				JOINT RightToeBase
				{
					OFFSET	 0.000000	 0.000000	 0.207540
					CHANNELS 3 Zrotation Xrotation Yrotation
					End Site
					{
						OFFSET	 0.000000	 0.000000	 0.207540
					}
				}
			}
		}
	}
	JOINT Spine
	{
		OFFSET	 0.000184	-0.007763	 0.117403
		CHANNELS 3 Zrotation Xrotation Yrotation
		JOINT Spine1
		{
			OFFSET	 0.000000	 0.000000	 0.137269
			CHANNELS 3 Zrotation Xrotation Yrotation
			JOINT Spine2
			{
				OFFSET	 0.000000	 0.000000	 0.156879
				CHANNELS 3 Zrotation Xrotation Yrotation
				JOINT LeftShoulder
				{
					OFFSET	 0.080501	-0.002496	 0.160144
					CHANNELS 3 Zrotation Xrotation Yrotation
					JOINT LeftArm
					{
						OFFSET	 0.000000	 0.000000	 0.164363
						CHANNELS 3 Zrotation Xrotation Yrotation
						JOINT LeftForeArm
						{
							OFFSET	 0.000000	 0.000000	 0.364576
							CHANNELS 3 Zrotation Xrotation Yrotation
							JOINT LeftHand
							{
								OFFSET	 0.000000	 0.000000	 0.360812
								CHANNELS 3 Zrotation Xrotation Yrotation
								JOINT LeftHandIndex1
								{
									OFFSET	 0.000000	 0.000000	 0.086006
									CHANNELS 3 Zrotation Xrotation Yrotation
									JOINT LeftHandIndex2
									{
										OFFSET	 0.000000	 0.000000	 0.047236
										CHANNELS 3 Zrotation Xrotation Yrotation
										JOINT LeftHandIndex3
										{
											OFFSET	-0.004284	-0.000551	 0.038166
											CHANNELS 3 Zrotation Xrotation Yrotation
											End Site
											{
												OFFSET	-0.004284	-0.000551	 0.038166
											}
										}
									}
								}
							}
						}
					}
				}
				JOINT Neck
				{
					OFFSET	 0.000000	 0.000000	 0.176489
					CHANNELS 3 Zrotation Xrotation Yrotation
					JOINT Head
					{
						OFFSET	 0.000000	-0.001747	 0.077940
						CHANNELS 3 Zrotation Xrotation Yrotation
						End Site
						{
							OFFSET	 0.000000	-0.001747	 0.077940
						}
					}
				}
				JOINT RightShoulder
				{
					OFFSET	-0.080363	 0.000306	 0.159706
					CHANNELS 3 Zrotation Xrotation Yrotation
					JOINT RightArm
					{
						OFFSET	 0.000000	 0.000000	 0.164196
						CHANNELS 3 Zrotation Xrotation Yrotation
						JOINT RightForeArm
						{
							OFFSET	 0.000000	 0.000000	 0.365611
							CHANNELS 3 Zrotation Xrotation Yrotation
							JOINT RightHand
							{
								OFFSET	 0.000000	 0.000000	 0.360648
								CHANNELS 3 Zrotation Xrotation Yrotation
								JOINT RightHandIndex1
								{
									OFFSET	 0.000000	 0.000000	 0.069977
									CHANNELS 3 Zrotation Xrotation Yrotation
									JOINT RightHandIndex2
									{
										OFFSET	 0.000000	 0.000000	 0.052305
										CHANNELS 3 Zrotation Xrotation Yrotation
										JOINT RightHandIndex3
										{
											OFFSET	 0.009002	-0.000782	 0.042196
											CHANNELS 3 Zrotation Xrotation Yrotation
											End Site
											{
												OFFSET	 0.009002	-0.000782	 0.042196
											}
										}
									}
								}
							}
						}
					}
				}
			}
		}
	}
}
MOTION
Frames:    5
Frame Time: 0.03333334
-0.093472	 6.767458	 1.250252	-94.827550	 2.282424	 1.442638	-25.122510	-8.001841	 177.478200	 18.034920	-40.883120	 5.909837	-93.963210	 73.135160	 71.783650	-2.204157	 46.585370	-0.468739	 6.484853	-7.681691	-172.080600	-8.092866	-39.290180	-0.001525	 55.025300	 76.825780	-40.405080	 1.976350	 55.867540	 0.829140	-4.420971	 5.577477	 1.829917	-6.252067	 6.892098	-6.846216	 7.047864	-21.742200	 7.246905	-91.229260	 83.958370	 178.242600	 43.599450	 55.095410	-69.105720	-14.665260	 3.925934	-10.120930	 40.593880	 4.518712	-12.908120	-11.525990	 9.721826	-25.482340	-5.213937	-0.202400	 3.566957	-1.378229	 35.397820	-2.634230	-0.308290	 4.623744	 0.993746	-3.360157	-14.198310	-12.326970	 87.727090	 87.418960	-176.799000	-9.630172	 69.934660	 9.523029	 14.479620	 3.897895	 10.130240	-33.308890	-2.288760	 8.970985	-1.466216	 24.458790	-62.158180	 5.070519	-0.690904	-9.399550	-2.350882	 35.473990	 5.254307
-0.091971	 6.806697	 1.252637	-86.337350	 3.639950	 2.147201	-27.986810	-10.092430	 175.194400	 19.851540	-42.817550	 7.389829	-87.376330	 72.136100	 65.391510	-2.274035	 41.977470	-0.329976	-1.172916	-5.555357	-173.236700	-4.297704	-35.271690	 2.192319	 49.942330	 79.509860	-36.809780	 2.035307	 53.942720	 0.743299	-11.553790	 4.973896	 1.409827	-6.271647	 8.326688	-7.360768	 11.991700	-24.783900	 9.477548	-91.229170	 83.958340	 178.242500	 31.224170	 60.141500	-54.249000	-11.065960	 3.171112	-9.274217	 35.556200	 1.464638	-8.148497	-11.093930	 8.651977	-23.119590	-5.213937	-0.202400	 3.566957	-1.378229	 35.397820	-2.634230	 5.143218	 7.305672	-5.583897	 2.262731	-19.989860	-2.208025	 87.726780	 87.418960	-176.798700	-7.465656	 68.599070	 6.825624	 12.632280	 3.156396	 9.297400	-33.307550	-2.349346	 9.066785	-0.509726	 25.958390	-62.470970	 5.070519	-0.690904	-9.399550	-2.350882	 35.473990	 5.254307
-0.091692	 6.811793	 1.252871	-85.380070	 3.731110	 2.197988	-28.058330	-10.324310	 174.965900	 19.957840	-43.078540	 7.499753	-86.572530	 72.078340	 64.669410	-2.278967	 41.592660	-0.319179	-2.073321	-5.217560	-173.361400	-3.827979	-34.741180	 2.432074	 49.414740	 79.840230	-36.515680	 2.040790	 53.750240	 0.735113	-12.463320	 4.932629	 1.377051	-6.249743	 8.582500	-7.392564	 12.638730	-25.065840	 9.787566	-91.229320	 83.958310	 178.242600	 28.725210	 60.632680	-51.673930	-10.822930	 3.069089	-9.149599	 34.487650	 1.055288	-7.472344	-11.071060	 8.542860	-22.959430	-5.213937	-0.202400	 3.566957	-1.378229	 35.397820	-2.634230	 5.863442	 7.627409	-6.372956	 3.067424	-20.622150	-0.813514	 87.726900	 87.419040	-176.798900	-7.358212	 68.398930	 6.813823	 12.511540	 3.055154	 9.173794	-33.193480	-2.346714	 9.100347	-0.448265	 26.063420	-62.542170	 5.070519	-0.690904	-9.399550	-2.350882	 35.473990	 5.254307
-0.089955	 6.835415	 1.253711	-81.413160	 3.782229	 2.472830	-27.699450	-11.043940	 173.978500	 20.377380	-44.273700	 7.961933	-83.876880	 71.736250	 62.350930	-2.309727	 38.935310	-0.247450	-6.042859	-3.511459	-173.968900	-1.713292	-32.411940	 3.428242	 49.584400	 81.565870	-37.828930	 2.156464	 48.971100	 0.551286	-16.574200	 4.969285	 1.249113	-6.065555	 9.936391	-7.562505	 15.232330	-25.822170	 11.068500	-91.229270	 83.958370	 178.242600	 16.684280	 61.084800	-39.964860	-11.296600	 2.601883	-8.517019	 28.590910	-0.745714	-4.914574	-10.752940	 8.781757	-22.028770	-5.213937	-0.202400	 3.566957	-1.378229	 35.397820	-2.634230	 8.787158	 9.133690	-8.969431	 6.474911	-23.250880	 4.877914	 87.726870	 87.418890	-176.798800	-6.953742	 67.293960	 7.777565	 12.407180	 2.582598	 8.548448	-32.050460	-2.355171	 9.217105	-1.385403	 24.854270	-63.362500	 5.070519	-0.690904	-9.399550	-2.350882	 35.473990	 5.254307
-0.084800	 6.858626	 1.254421	-77.459860	 4.731699	 2.704462	-29.031300	-12.705950	 172.761200	 21.637170	-45.585500	 9.063606	-79.137180	 70.760640	 57.991740	-2.407856	 15.122880	 0.269432	-9.884345	-3.156158	-174.879100	 0.186158	-30.472170	 4.219022	 43.902650	 83.286390	-33.159300	 2.200472	 46.669110	 0.473699	-20.753880	 4.622736	 0.688660	-6.071377	 10.673730	-7.087111	 16.873130	-26.353900	 11.328660	-91.229270	 83.958310	 178.242600	 5.364996	 59.802350	-29.309640	-12.572460	 2.138575	-7.811977	 22.767990	-2.820001	-3.094868	-10.310950	 9.134746	-20.723580	-5.213937	-0.202400	 3.566957	-1.378229	 35.397820	-2.634230	 11.129870	 9.905755	-10.866510	 9.250091	-24.163360	 9.210220	 87.726780	 87.419040	-176.798700	-2.027699	 66.157410	 5.278893	 10.388220	 2.091510	 7.844214	-31.018040	-2.979378	 8.385559	-0.478010	 26.195230	-63.437120	 5.070519	-0.690904	-9.399550	-2.350882	 35.473990	 5.254307
